<mxfile host="app.diagrams.net" modified="2023-11-01T18:39:53.347Z" agent="Mozilla/5.0 (Windows NT 10.0; Win64; x64) AppleWebKit/537.36 (KHTML, like Gecko) Chrome/118.0.0.0 Safari/537.36" etag="cP_2Ac8Au4uZtkUGWcD4" version="22.0.8" type="device">
  <diagram id="XXOyx7wN-yMfLFyLkWte" name="Página-1">
    <mxGraphModel dx="880" dy="468" grid="1" gridSize="10" guides="1" tooltips="1" connect="1" arrows="1" fold="1" page="1" pageScale="1" pageWidth="827" pageHeight="1169" math="0" shadow="0">
      <root>
        <mxCell id="0" />
        <mxCell id="1" parent="0" />
        <mxCell id="8sGjkqQczM1WgbNTwfao-3" style="edgeStyle=orthogonalEdgeStyle;rounded=0;orthogonalLoop=1;jettySize=auto;html=1;exitX=1;exitY=0.5;exitDx=0;exitDy=0;entryX=0;entryY=0.5;entryDx=0;entryDy=0;" parent="1" source="RbHhKcOVrRznY30tw-43-1" target="RbHhKcOVrRznY30tw-43-7" edge="1">
          <mxGeometry relative="1" as="geometry" />
        </mxCell>
        <mxCell id="RbHhKcOVrRznY30tw-43-1" value="" style="ellipse;fillColor=#000000;strokeColor=none;" parent="1" vertex="1">
          <mxGeometry x="79" y="195" width="30" height="30" as="geometry" />
        </mxCell>
        <mxCell id="RbHhKcOVrRznY30tw-43-2" value="" style="ellipse;html=1;shape=endState;fillColor=#000000;strokeColor=#000000;" parent="1" vertex="1">
          <mxGeometry x="709" y="330" width="30" height="30" as="geometry" />
        </mxCell>
        <mxCell id="RbHhKcOVrRznY30tw-43-7" value="Tela de Login" style="html=1;" parent="1" vertex="1">
          <mxGeometry x="229" y="185" width="110" height="50" as="geometry" />
        </mxCell>
        <mxCell id="8sGjkqQczM1WgbNTwfao-6" style="edgeStyle=orthogonalEdgeStyle;rounded=0;orthogonalLoop=1;jettySize=auto;html=1;entryX=0;entryY=0.5;entryDx=0;entryDy=0;exitX=1;exitY=0.5;exitDx=0;exitDy=0;" parent="1" source="RbHhKcOVrRznY30tw-43-7" target="8sGjkqQczM1WgbNTwfao-5" edge="1">
          <mxGeometry relative="1" as="geometry">
            <mxPoint x="469" y="210" as="sourcePoint" />
          </mxGeometry>
        </mxCell>
        <mxCell id="RbHhKcOVrRznY30tw-43-9" value="Diagrama de Atividades:&lt;br&gt;&lt;br&gt;Login ao Sistema&amp;nbsp;" style="text;html=1;strokeColor=none;fillColor=none;align=center;verticalAlign=middle;whiteSpace=wrap;rounded=0;" parent="1" vertex="1">
          <mxGeometry x="274" y="40" width="280" height="20" as="geometry" />
        </mxCell>
        <mxCell id="8sGjkqQczM1WgbNTwfao-8" style="edgeStyle=orthogonalEdgeStyle;rounded=0;orthogonalLoop=1;jettySize=auto;html=1;entryX=0;entryY=0.5;entryDx=0;entryDy=0;" parent="1" source="8sGjkqQczM1WgbNTwfao-5" target="8sGjkqQczM1WgbNTwfao-7" edge="1">
          <mxGeometry relative="1" as="geometry" />
        </mxCell>
        <mxCell id="8sGjkqQczM1WgbNTwfao-5" value="Inserir Dados" style="html=1;" parent="1" vertex="1">
          <mxGeometry x="430" y="185" width="110" height="50" as="geometry" />
        </mxCell>
        <mxCell id="8sGjkqQczM1WgbNTwfao-9" style="edgeStyle=orthogonalEdgeStyle;rounded=0;orthogonalLoop=1;jettySize=auto;html=1;" parent="1" source="8sGjkqQczM1WgbNTwfao-7" target="RbHhKcOVrRznY30tw-43-2" edge="1">
          <mxGeometry relative="1" as="geometry" />
        </mxCell>
        <mxCell id="8sGjkqQczM1WgbNTwfao-13" style="edgeStyle=orthogonalEdgeStyle;rounded=0;orthogonalLoop=1;jettySize=auto;html=1;entryX=0.5;entryY=0;entryDx=0;entryDy=0;" parent="1" source="8sGjkqQczM1WgbNTwfao-7" target="RbHhKcOVrRznY30tw-43-7" edge="1">
          <mxGeometry relative="1" as="geometry">
            <Array as="points">
              <mxPoint x="724" y="165" />
              <mxPoint x="284" y="165" />
            </Array>
          </mxGeometry>
        </mxCell>
        <mxCell id="8sGjkqQczM1WgbNTwfao-7" value="" style="rhombus;" parent="1" vertex="1">
          <mxGeometry x="699" y="190" width="50" height="40" as="geometry" />
        </mxCell>
        <mxCell id="8sGjkqQczM1WgbNTwfao-11" value="Usuário Logado" style="text;html=1;strokeColor=none;fillColor=none;align=center;verticalAlign=middle;whiteSpace=wrap;rounded=0;" parent="1" vertex="1">
          <mxGeometry x="659" y="270" width="40" height="20" as="geometry" />
        </mxCell>
        <mxCell id="8sGjkqQczM1WgbNTwfao-12" value="Usuário/Senha inválida" style="text;html=1;strokeColor=none;fillColor=none;align=center;verticalAlign=middle;whiteSpace=wrap;rounded=0;" parent="1" vertex="1">
          <mxGeometry x="379" y="140" width="190" height="20" as="geometry" />
        </mxCell>
        <mxCell id="N-xS7ZkoJm9ypp6warcl-1" value="Dados corretos?" style="text;html=1;strokeColor=none;fillColor=none;align=center;verticalAlign=middle;whiteSpace=wrap;rounded=0;" vertex="1" parent="1">
          <mxGeometry x="760" y="200" width="40" height="20" as="geometry" />
        </mxCell>
        <mxCell id="N-xS7ZkoJm9ypp6warcl-3" value="NÃO" style="text;html=1;strokeColor=none;fillColor=none;align=center;verticalAlign=middle;whiteSpace=wrap;rounded=0;" vertex="1" parent="1">
          <mxGeometry x="680" y="130" width="40" height="20" as="geometry" />
        </mxCell>
        <mxCell id="N-xS7ZkoJm9ypp6warcl-4" value="SIM" style="text;html=1;strokeColor=none;fillColor=none;align=center;verticalAlign=middle;whiteSpace=wrap;rounded=0;" vertex="1" parent="1">
          <mxGeometry x="730" y="240" width="40" height="20" as="geometry" />
        </mxCell>
      </root>
    </mxGraphModel>
  </diagram>
</mxfile>
